<mxfile host="app.diagrams.net" modified="2023-09-08T18:20:24.179Z" agent="Mozilla/5.0 (Windows NT 10.0; Win64; x64) AppleWebKit/537.36 (KHTML, like Gecko) Chrome/116.0.0.0 Safari/537.36" etag="HCzRXlUEo3cJcG2EQMH4" version="21.7.2" type="github" pages="6">
  <diagram name="CasosDeUso" id="JelgjD2opffosa8SOde1">
    <mxGraphModel dx="1434" dy="1959" grid="1" gridSize="10" guides="1" tooltips="1" connect="1" arrows="1" fold="1" page="1" pageScale="1" pageWidth="827" pageHeight="1169" math="0" shadow="0">
      <root>
        <mxCell id="0" />
        <mxCell id="1" parent="0" />
        <mxCell id="2tcgRa_4wSo_UV4gh3Pa-3" value="Comprador" style="shape=umlActor;verticalLabelPosition=bottom;verticalAlign=top;html=1;outlineConnect=0;" parent="1" vertex="1">
          <mxGeometry x="40" y="250" width="30" height="60" as="geometry" />
        </mxCell>
        <mxCell id="2tcgRa_4wSo_UV4gh3Pa-4" value="Vendedor" style="shape=umlActor;verticalLabelPosition=bottom;verticalAlign=top;html=1;outlineConnect=0;" parent="1" vertex="1">
          <mxGeometry x="50" y="960" width="30" height="60" as="geometry" />
        </mxCell>
        <mxCell id="2tcgRa_4wSo_UV4gh3Pa-6" value="&amp;lt;&amp;lt;Comum&amp;gt;&amp;gt;&lt;br&gt;Visualiza&amp;nbsp;catálogo de produtos" style="ellipse;whiteSpace=wrap;html=1;" parent="1" vertex="1">
          <mxGeometry x="324" y="230" width="180" height="80" as="geometry" />
        </mxCell>
        <mxCell id="2tcgRa_4wSo_UV4gh3Pa-7" value="" style="endArrow=none;html=1;rounded=0;" parent="1" source="2tcgRa_4wSo_UV4gh3Pa-3" target="2tcgRa_4wSo_UV4gh3Pa-6" edge="1">
          <mxGeometry width="50" height="50" relative="1" as="geometry">
            <mxPoint x="350" y="450" as="sourcePoint" />
            <mxPoint x="400" y="400" as="targetPoint" />
          </mxGeometry>
        </mxCell>
        <mxCell id="2tcgRa_4wSo_UV4gh3Pa-10" value="&amp;lt;&amp;lt;Opcional&amp;gt;&amp;gt;&lt;br&gt;Busca por categoria" style="ellipse;whiteSpace=wrap;html=1;" parent="1" vertex="1">
          <mxGeometry x="520" y="110" width="160" height="80" as="geometry" />
        </mxCell>
        <mxCell id="2tcgRa_4wSo_UV4gh3Pa-13" value="" style="endArrow=none;dashed=1;html=1;rounded=0;exitX=0.785;exitY=0.022;exitDx=0;exitDy=0;exitPerimeter=0;endFill=0;startArrow=classic;startFill=1;" parent="1" source="2tcgRa_4wSo_UV4gh3Pa-6" target="2tcgRa_4wSo_UV4gh3Pa-10" edge="1">
          <mxGeometry width="50" height="50" relative="1" as="geometry">
            <mxPoint x="350" y="350" as="sourcePoint" />
            <mxPoint x="400" y="300" as="targetPoint" />
          </mxGeometry>
        </mxCell>
        <mxCell id="2tcgRa_4wSo_UV4gh3Pa-14" value="&amp;lt;&amp;lt;Comum&amp;gt;&amp;gt;&lt;br&gt;Exibir detalhes do produto" style="ellipse;whiteSpace=wrap;html=1;" parent="1" vertex="1">
          <mxGeometry x="620" y="210" width="200" height="80" as="geometry" />
        </mxCell>
        <mxCell id="2tcgRa_4wSo_UV4gh3Pa-15" value="" style="endArrow=classic;dashed=1;html=1;dashPattern=1 3;strokeWidth=2;rounded=0;entryX=0.028;entryY=0.651;entryDx=0;entryDy=0;entryPerimeter=0;endFill=1;" parent="1" source="2tcgRa_4wSo_UV4gh3Pa-6" target="2tcgRa_4wSo_UV4gh3Pa-14" edge="1">
          <mxGeometry width="50" height="50" relative="1" as="geometry">
            <mxPoint x="290" y="350" as="sourcePoint" />
            <mxPoint x="340" y="300" as="targetPoint" />
          </mxGeometry>
        </mxCell>
        <mxCell id="2tcgRa_4wSo_UV4gh3Pa-16" value="&amp;lt;&amp;lt;extends&amp;gt;&amp;gt;" style="text;html=1;align=center;verticalAlign=middle;resizable=0;points=[];autosize=1;strokeColor=none;fillColor=none;" parent="1" vertex="1">
          <mxGeometry x="430" y="170" width="90" height="30" as="geometry" />
        </mxCell>
        <mxCell id="2tcgRa_4wSo_UV4gh3Pa-17" value="&amp;lt;&amp;lt;includes&amp;gt;" style="text;html=1;align=center;verticalAlign=middle;resizable=0;points=[];autosize=1;strokeColor=none;fillColor=none;" parent="1" vertex="1">
          <mxGeometry x="515" y="238" width="90" height="30" as="geometry" />
        </mxCell>
        <mxCell id="2tcgRa_4wSo_UV4gh3Pa-18" value="&amp;lt;&amp;lt;Comum&amp;gt;&amp;gt;&lt;br&gt;Adiciona produto ao carrinho" style="ellipse;whiteSpace=wrap;html=1;" parent="1" vertex="1">
          <mxGeometry x="325" y="320" width="190" height="80" as="geometry" />
        </mxCell>
        <mxCell id="2tcgRa_4wSo_UV4gh3Pa-19" value="" style="endArrow=none;html=1;rounded=0;exitX=0;exitY=0.5;exitDx=0;exitDy=0;" parent="1" source="2tcgRa_4wSo_UV4gh3Pa-18" target="2tcgRa_4wSo_UV4gh3Pa-3" edge="1">
          <mxGeometry width="50" height="50" relative="1" as="geometry">
            <mxPoint x="290" y="570" as="sourcePoint" />
            <mxPoint x="340" y="520" as="targetPoint" />
          </mxGeometry>
        </mxCell>
        <mxCell id="2tcgRa_4wSo_UV4gh3Pa-20" value="&amp;lt;&amp;lt;Comum&amp;gt;&amp;gt;&lt;br&gt;Realizar pagamento de compras" style="ellipse;whiteSpace=wrap;html=1;" parent="1" vertex="1">
          <mxGeometry x="315" y="430" width="200" height="80" as="geometry" />
        </mxCell>
        <mxCell id="2tcgRa_4wSo_UV4gh3Pa-21" value="" style="endArrow=none;html=1;rounded=0;" parent="1" source="2tcgRa_4wSo_UV4gh3Pa-20" target="2tcgRa_4wSo_UV4gh3Pa-3" edge="1">
          <mxGeometry width="50" height="50" relative="1" as="geometry">
            <mxPoint x="290" y="570" as="sourcePoint" />
            <mxPoint x="340" y="520" as="targetPoint" />
          </mxGeometry>
        </mxCell>
        <mxCell id="2tcgRa_4wSo_UV4gh3Pa-22" value="" style="endArrow=classic;dashed=1;html=1;dashPattern=1 3;strokeWidth=2;rounded=0;entryX=0.9;entryY=0.875;entryDx=0;entryDy=0;entryPerimeter=0;exitX=1;exitY=0;exitDx=0;exitDy=0;startArrow=none;startFill=0;endFill=1;" parent="1" source="2tcgRa_4wSo_UV4gh3Pa-20" target="2tcgRa_4wSo_UV4gh3Pa-18" edge="1">
          <mxGeometry width="50" height="50" relative="1" as="geometry">
            <mxPoint x="290" y="570" as="sourcePoint" />
            <mxPoint x="340" y="520" as="targetPoint" />
          </mxGeometry>
        </mxCell>
        <mxCell id="2tcgRa_4wSo_UV4gh3Pa-23" value="&amp;lt;&amp;lt;extends&amp;gt;&amp;gt;" style="text;html=1;align=center;verticalAlign=middle;resizable=0;points=[];autosize=1;strokeColor=none;fillColor=none;" parent="1" vertex="1">
          <mxGeometry x="497" y="420" width="90" height="30" as="geometry" />
        </mxCell>
        <mxCell id="2tcgRa_4wSo_UV4gh3Pa-24" value="&amp;lt;&amp;lt;Opcional&amp;gt;&amp;gt;&lt;br&gt;Avaliar produtos" style="ellipse;whiteSpace=wrap;html=1;" parent="1" vertex="1">
          <mxGeometry x="311" y="70" width="186" height="80" as="geometry" />
        </mxCell>
        <mxCell id="2tcgRa_4wSo_UV4gh3Pa-25" value="" style="endArrow=none;html=1;rounded=0;" parent="1" source="2tcgRa_4wSo_UV4gh3Pa-3" target="2tcgRa_4wSo_UV4gh3Pa-24" edge="1">
          <mxGeometry width="50" height="50" relative="1" as="geometry">
            <mxPoint x="170" y="230" as="sourcePoint" />
            <mxPoint x="340" y="180" as="targetPoint" />
          </mxGeometry>
        </mxCell>
        <mxCell id="2tcgRa_4wSo_UV4gh3Pa-26" value="&amp;lt;&amp;lt;Opcional&amp;gt;&amp;gt;&lt;br&gt;Conversar com atendentes do suporte" style="ellipse;whiteSpace=wrap;html=1;" parent="1" vertex="1">
          <mxGeometry x="301" y="-40" width="226" height="80" as="geometry" />
        </mxCell>
        <mxCell id="2tcgRa_4wSo_UV4gh3Pa-27" value="" style="endArrow=none;html=1;rounded=0;entryX=0.207;entryY=0.914;entryDx=0;entryDy=0;entryPerimeter=0;" parent="1" source="2tcgRa_4wSo_UV4gh3Pa-3" target="2tcgRa_4wSo_UV4gh3Pa-26" edge="1">
          <mxGeometry width="50" height="50" relative="1" as="geometry">
            <mxPoint x="290" y="120" as="sourcePoint" />
            <mxPoint x="340" y="70" as="targetPoint" />
          </mxGeometry>
        </mxCell>
        <mxCell id="2tcgRa_4wSo_UV4gh3Pa-28" value="Avaliador especialista" style="shape=umlActor;verticalLabelPosition=bottom;verticalAlign=top;html=1;outlineConnect=0;" parent="1" vertex="1">
          <mxGeometry x="90" y="730" width="30" height="60" as="geometry" />
        </mxCell>
        <mxCell id="2tcgRa_4wSo_UV4gh3Pa-30" value="&amp;lt;&amp;lt;Opcional&amp;gt;&amp;gt;&lt;br&gt;Autenticar produto" style="ellipse;whiteSpace=wrap;html=1;" parent="1" vertex="1">
          <mxGeometry x="250" y="680" width="151" height="80" as="geometry" />
        </mxCell>
        <mxCell id="2tcgRa_4wSo_UV4gh3Pa-31" value="" style="endArrow=none;html=1;rounded=0;exitX=0;exitY=0.5;exitDx=0;exitDy=0;" parent="1" source="2tcgRa_4wSo_UV4gh3Pa-30" target="2tcgRa_4wSo_UV4gh3Pa-28" edge="1">
          <mxGeometry width="50" height="50" relative="1" as="geometry">
            <mxPoint x="420" y="690" as="sourcePoint" />
            <mxPoint x="470" y="640" as="targetPoint" />
          </mxGeometry>
        </mxCell>
        <mxCell id="2tcgRa_4wSo_UV4gh3Pa-32" value="&amp;lt;&amp;lt;Comum&amp;gt;&amp;gt;&lt;br&gt;Cadastras anúncio de produtos&amp;nbsp;" style="ellipse;whiteSpace=wrap;html=1;" parent="1" vertex="1">
          <mxGeometry x="230" y="960" width="210" height="80" as="geometry" />
        </mxCell>
        <mxCell id="2tcgRa_4wSo_UV4gh3Pa-33" value="" style="endArrow=none;html=1;rounded=0;" parent="1" source="2tcgRa_4wSo_UV4gh3Pa-32" target="2tcgRa_4wSo_UV4gh3Pa-4" edge="1">
          <mxGeometry width="50" height="50" relative="1" as="geometry">
            <mxPoint x="420" y="1010" as="sourcePoint" />
            <mxPoint x="470" y="960" as="targetPoint" />
          </mxGeometry>
        </mxCell>
        <mxCell id="2tcgRa_4wSo_UV4gh3Pa-34" value="&amp;lt;&amp;lt;Comum&amp;gt;&amp;gt;&lt;br&gt;Postar produto" style="ellipse;whiteSpace=wrap;html=1;" parent="1" vertex="1">
          <mxGeometry x="211" y="1060" width="170" height="80" as="geometry" />
        </mxCell>
        <mxCell id="2tcgRa_4wSo_UV4gh3Pa-35" value="" style="endArrow=none;html=1;rounded=0;" parent="1" source="2tcgRa_4wSo_UV4gh3Pa-4" target="2tcgRa_4wSo_UV4gh3Pa-34" edge="1">
          <mxGeometry width="50" height="50" relative="1" as="geometry">
            <mxPoint x="420" y="1220" as="sourcePoint" />
            <mxPoint x="470" y="1170" as="targetPoint" />
          </mxGeometry>
        </mxCell>
        <mxCell id="2tcgRa_4wSo_UV4gh3Pa-37" value="&amp;lt;&amp;lt;Comum&amp;gt;&amp;gt;&lt;br&gt;Receber pagamento por vendas ou serviços" style="ellipse;whiteSpace=wrap;html=1;" parent="1" vertex="1">
          <mxGeometry x="329" y="810" width="276" height="80" as="geometry" />
        </mxCell>
        <mxCell id="2tcgRa_4wSo_UV4gh3Pa-38" value="" style="endArrow=none;html=1;rounded=0;exitX=0;exitY=0;exitDx=0;exitDy=0;" parent="1" source="2tcgRa_4wSo_UV4gh3Pa-37" target="2tcgRa_4wSo_UV4gh3Pa-28" edge="1">
          <mxGeometry width="50" height="50" relative="1" as="geometry">
            <mxPoint x="230" y="890" as="sourcePoint" />
            <mxPoint x="280" y="840" as="targetPoint" />
          </mxGeometry>
        </mxCell>
        <mxCell id="2tcgRa_4wSo_UV4gh3Pa-39" value="" style="endArrow=none;html=1;rounded=0;entryX=0.017;entryY=0.688;entryDx=0;entryDy=0;entryPerimeter=0;" parent="1" source="2tcgRa_4wSo_UV4gh3Pa-4" target="2tcgRa_4wSo_UV4gh3Pa-37" edge="1">
          <mxGeometry width="50" height="50" relative="1" as="geometry">
            <mxPoint x="230" y="890" as="sourcePoint" />
            <mxPoint x="280" y="840" as="targetPoint" />
          </mxGeometry>
        </mxCell>
        <mxCell id="2tcgRa_4wSo_UV4gh3Pa-40" value="Transportadora" style="shape=umlActor;verticalLabelPosition=bottom;verticalAlign=top;html=1;outlineConnect=0;" parent="1" vertex="1">
          <mxGeometry x="760" y="810" width="30" height="60" as="geometry" />
        </mxCell>
        <mxCell id="2tcgRa_4wSo_UV4gh3Pa-43" value="" style="endArrow=none;html=1;rounded=0;entryX=1;entryY=0.5;entryDx=0;entryDy=0;" parent="1" source="2tcgRa_4wSo_UV4gh3Pa-40" target="2tcgRa_4wSo_UV4gh3Pa-37" edge="1">
          <mxGeometry width="50" height="50" relative="1" as="geometry">
            <mxPoint x="670" y="1120" as="sourcePoint" />
            <mxPoint x="720" y="1070" as="targetPoint" />
          </mxGeometry>
        </mxCell>
        <mxCell id="2tcgRa_4wSo_UV4gh3Pa-44" value="&amp;lt;&amp;lt;Alternativa&amp;gt;&amp;gt;&lt;br&gt;Realiza serviço de entrerga" style="ellipse;whiteSpace=wrap;html=1;" parent="1" vertex="1">
          <mxGeometry x="489" y="930" width="203" height="80" as="geometry" />
        </mxCell>
        <mxCell id="2tcgRa_4wSo_UV4gh3Pa-45" value="" style="endArrow=none;html=1;rounded=0;exitX=0.796;exitY=0.101;exitDx=0;exitDy=0;exitPerimeter=0;" parent="1" source="2tcgRa_4wSo_UV4gh3Pa-44" target="2tcgRa_4wSo_UV4gh3Pa-40" edge="1">
          <mxGeometry width="50" height="50" relative="1" as="geometry">
            <mxPoint x="480" y="1100" as="sourcePoint" />
            <mxPoint x="530" y="1050" as="targetPoint" />
          </mxGeometry>
        </mxCell>
        <mxCell id="2tcgRa_4wSo_UV4gh3Pa-46" value="&amp;lt;&amp;lt;Opcional&amp;gt;&amp;gt;&lt;br&gt;Cadastrar produto em leilão" style="ellipse;whiteSpace=wrap;html=1;" parent="1" vertex="1">
          <mxGeometry x="160" y="1169" width="200" height="80" as="geometry" />
        </mxCell>
        <mxCell id="2tcgRa_4wSo_UV4gh3Pa-50" value="" style="endArrow=none;html=1;rounded=0;exitX=0.217;exitY=0.034;exitDx=0;exitDy=0;exitPerimeter=0;" parent="1" source="2tcgRa_4wSo_UV4gh3Pa-46" target="2tcgRa_4wSo_UV4gh3Pa-4" edge="1">
          <mxGeometry width="50" height="50" relative="1" as="geometry">
            <mxPoint x="380" y="1310" as="sourcePoint" />
            <mxPoint x="430" y="1260" as="targetPoint" />
          </mxGeometry>
        </mxCell>
        <mxCell id="2tcgRa_4wSo_UV4gh3Pa-51" value="&amp;lt;&amp;lt;Opcional&amp;gt;&amp;gt;&lt;br&gt;Participar de leilão" style="ellipse;whiteSpace=wrap;html=1;" parent="1" vertex="1">
          <mxGeometry x="304" y="545" width="185" height="80" as="geometry" />
        </mxCell>
        <mxCell id="2tcgRa_4wSo_UV4gh3Pa-52" value="" style="endArrow=none;html=1;rounded=0;entryX=0;entryY=0.5;entryDx=0;entryDy=0;" parent="1" source="2tcgRa_4wSo_UV4gh3Pa-3" target="2tcgRa_4wSo_UV4gh3Pa-51" edge="1">
          <mxGeometry width="50" height="50" relative="1" as="geometry">
            <mxPoint x="380" y="580" as="sourcePoint" />
            <mxPoint x="430" y="530" as="targetPoint" />
          </mxGeometry>
        </mxCell>
        <mxCell id="2tcgRa_4wSo_UV4gh3Pa-53" value="" style="endArrow=none;dashed=1;html=1;dashPattern=1 3;strokeWidth=2;rounded=0;entryX=0.805;entryY=0.93;entryDx=0;entryDy=0;entryPerimeter=0;exitX=1;exitY=0;exitDx=0;exitDy=0;startArrow=classic;startFill=1;" parent="1" source="2tcgRa_4wSo_UV4gh3Pa-51" target="2tcgRa_4wSo_UV4gh3Pa-20" edge="1">
          <mxGeometry width="50" height="50" relative="1" as="geometry">
            <mxPoint x="380" y="470" as="sourcePoint" />
            <mxPoint x="430" y="420" as="targetPoint" />
          </mxGeometry>
        </mxCell>
        <mxCell id="2tcgRa_4wSo_UV4gh3Pa-54" value="&amp;lt;&amp;lt;extends&amp;gt;&amp;gt;" style="text;html=1;align=center;verticalAlign=middle;resizable=0;points=[];autosize=1;strokeColor=none;fillColor=none;" parent="1" vertex="1">
          <mxGeometry x="470" y="515" width="90" height="30" as="geometry" />
        </mxCell>
      </root>
    </mxGraphModel>
  </diagram>
  <diagram name="CasosDeUso Comuns" id="Crp5rW3yw3gZgQAA3yAs">
    <mxGraphModel dx="1434" dy="790" grid="1" gridSize="10" guides="1" tooltips="1" connect="1" arrows="1" fold="1" page="1" pageScale="1" pageWidth="827" pageHeight="1169" math="0" shadow="0">
      <root>
        <mxCell id="a6iTerX62fWIqiRSxnE7-0" />
        <mxCell id="a6iTerX62fWIqiRSxnE7-1" parent="a6iTerX62fWIqiRSxnE7-0" />
        <mxCell id="a6iTerX62fWIqiRSxnE7-2" value="Comprador" style="shape=umlActor;verticalLabelPosition=bottom;verticalAlign=top;html=1;outlineConnect=0;" parent="a6iTerX62fWIqiRSxnE7-1" vertex="1">
          <mxGeometry x="40" y="80" width="30" height="60" as="geometry" />
        </mxCell>
        <mxCell id="a6iTerX62fWIqiRSxnE7-3" value="Vendedor" style="shape=umlActor;verticalLabelPosition=bottom;verticalAlign=top;html=1;outlineConnect=0;" parent="a6iTerX62fWIqiRSxnE7-1" vertex="1">
          <mxGeometry x="50" y="650" width="30" height="60" as="geometry" />
        </mxCell>
        <mxCell id="a6iTerX62fWIqiRSxnE7-4" value="&amp;lt;&amp;lt;Comum&amp;gt;&amp;gt;&lt;br&gt;Visualiza&amp;nbsp;catálogo de produtos" style="ellipse;whiteSpace=wrap;html=1;" parent="a6iTerX62fWIqiRSxnE7-1" vertex="1">
          <mxGeometry x="324" y="60" width="180" height="80" as="geometry" />
        </mxCell>
        <mxCell id="a6iTerX62fWIqiRSxnE7-5" value="" style="endArrow=none;html=1;rounded=0;" parent="a6iTerX62fWIqiRSxnE7-1" source="a6iTerX62fWIqiRSxnE7-2" target="a6iTerX62fWIqiRSxnE7-4" edge="1">
          <mxGeometry width="50" height="50" relative="1" as="geometry">
            <mxPoint x="350" y="280" as="sourcePoint" />
            <mxPoint x="400" y="230" as="targetPoint" />
          </mxGeometry>
        </mxCell>
        <mxCell id="a6iTerX62fWIqiRSxnE7-8" value="&amp;lt;&amp;lt;Comum&amp;gt;&amp;gt;&lt;br&gt;Exibir detalhes do produto" style="ellipse;whiteSpace=wrap;html=1;" parent="a6iTerX62fWIqiRSxnE7-1" vertex="1">
          <mxGeometry x="620" y="40" width="200" height="80" as="geometry" />
        </mxCell>
        <mxCell id="a6iTerX62fWIqiRSxnE7-9" value="" style="endArrow=classic;dashed=1;html=1;dashPattern=1 3;strokeWidth=2;rounded=0;entryX=0.028;entryY=0.651;entryDx=0;entryDy=0;entryPerimeter=0;endFill=1;" parent="a6iTerX62fWIqiRSxnE7-1" source="a6iTerX62fWIqiRSxnE7-4" target="a6iTerX62fWIqiRSxnE7-8" edge="1">
          <mxGeometry width="50" height="50" relative="1" as="geometry">
            <mxPoint x="290" y="180" as="sourcePoint" />
            <mxPoint x="340" y="130" as="targetPoint" />
          </mxGeometry>
        </mxCell>
        <mxCell id="a6iTerX62fWIqiRSxnE7-11" value="&amp;lt;&amp;lt;includes&amp;gt;" style="text;html=1;align=center;verticalAlign=middle;resizable=0;points=[];autosize=1;strokeColor=none;fillColor=none;" parent="a6iTerX62fWIqiRSxnE7-1" vertex="1">
          <mxGeometry x="515" y="68" width="90" height="30" as="geometry" />
        </mxCell>
        <mxCell id="a6iTerX62fWIqiRSxnE7-12" value="&amp;lt;&amp;lt;Comum&amp;gt;&amp;gt;&lt;br&gt;Adiciona produto ao carrinho" style="ellipse;whiteSpace=wrap;html=1;" parent="a6iTerX62fWIqiRSxnE7-1" vertex="1">
          <mxGeometry x="325" y="150" width="190" height="80" as="geometry" />
        </mxCell>
        <mxCell id="a6iTerX62fWIqiRSxnE7-13" value="" style="endArrow=none;html=1;rounded=0;exitX=0;exitY=0.5;exitDx=0;exitDy=0;" parent="a6iTerX62fWIqiRSxnE7-1" source="a6iTerX62fWIqiRSxnE7-12" target="a6iTerX62fWIqiRSxnE7-2" edge="1">
          <mxGeometry width="50" height="50" relative="1" as="geometry">
            <mxPoint x="290" y="400" as="sourcePoint" />
            <mxPoint x="340" y="350" as="targetPoint" />
          </mxGeometry>
        </mxCell>
        <mxCell id="a6iTerX62fWIqiRSxnE7-14" value="&amp;lt;&amp;lt;Comum&amp;gt;&amp;gt;&lt;br&gt;Realizar pagamento de compras" style="ellipse;whiteSpace=wrap;html=1;" parent="a6iTerX62fWIqiRSxnE7-1" vertex="1">
          <mxGeometry x="315" y="260" width="200" height="80" as="geometry" />
        </mxCell>
        <mxCell id="a6iTerX62fWIqiRSxnE7-15" value="" style="endArrow=none;html=1;rounded=0;" parent="a6iTerX62fWIqiRSxnE7-1" source="a6iTerX62fWIqiRSxnE7-14" target="a6iTerX62fWIqiRSxnE7-2" edge="1">
          <mxGeometry width="50" height="50" relative="1" as="geometry">
            <mxPoint x="290" y="400" as="sourcePoint" />
            <mxPoint x="340" y="350" as="targetPoint" />
          </mxGeometry>
        </mxCell>
        <mxCell id="a6iTerX62fWIqiRSxnE7-16" value="" style="endArrow=classic;dashed=1;html=1;dashPattern=1 3;strokeWidth=2;rounded=0;entryX=0.9;entryY=0.875;entryDx=0;entryDy=0;entryPerimeter=0;exitX=1;exitY=0;exitDx=0;exitDy=0;startArrow=none;startFill=0;endFill=1;" parent="a6iTerX62fWIqiRSxnE7-1" source="a6iTerX62fWIqiRSxnE7-14" target="a6iTerX62fWIqiRSxnE7-12" edge="1">
          <mxGeometry width="50" height="50" relative="1" as="geometry">
            <mxPoint x="290" y="400" as="sourcePoint" />
            <mxPoint x="340" y="350" as="targetPoint" />
          </mxGeometry>
        </mxCell>
        <mxCell id="a6iTerX62fWIqiRSxnE7-17" value="&amp;lt;&amp;lt;extends&amp;gt;&amp;gt;" style="text;html=1;align=center;verticalAlign=middle;resizable=0;points=[];autosize=1;strokeColor=none;fillColor=none;" parent="a6iTerX62fWIqiRSxnE7-1" vertex="1">
          <mxGeometry x="497" y="250" width="90" height="30" as="geometry" />
        </mxCell>
        <mxCell id="a6iTerX62fWIqiRSxnE7-22" value="Avaliador especialista" style="shape=umlActor;verticalLabelPosition=bottom;verticalAlign=top;html=1;outlineConnect=0;" parent="a6iTerX62fWIqiRSxnE7-1" vertex="1">
          <mxGeometry x="90" y="420" width="30" height="60" as="geometry" />
        </mxCell>
        <mxCell id="a6iTerX62fWIqiRSxnE7-23" value="&amp;lt;&amp;lt;Opcional&amp;gt;&amp;gt;&lt;br&gt;Autenticar produto" style="ellipse;whiteSpace=wrap;html=1;" parent="a6iTerX62fWIqiRSxnE7-1" vertex="1">
          <mxGeometry x="344.5" y="390" width="151" height="80" as="geometry" />
        </mxCell>
        <mxCell id="a6iTerX62fWIqiRSxnE7-24" value="" style="endArrow=none;html=1;rounded=0;exitX=0;exitY=0.5;exitDx=0;exitDy=0;" parent="a6iTerX62fWIqiRSxnE7-1" source="a6iTerX62fWIqiRSxnE7-23" target="a6iTerX62fWIqiRSxnE7-22" edge="1">
          <mxGeometry width="50" height="50" relative="1" as="geometry">
            <mxPoint x="420" y="380" as="sourcePoint" />
            <mxPoint x="470" y="330" as="targetPoint" />
          </mxGeometry>
        </mxCell>
        <mxCell id="a6iTerX62fWIqiRSxnE7-25" value="&amp;lt;&amp;lt;Comum&amp;gt;&amp;gt;&lt;br&gt;Cadastras anúncio de produtos&amp;nbsp;" style="ellipse;whiteSpace=wrap;html=1;" parent="a6iTerX62fWIqiRSxnE7-1" vertex="1">
          <mxGeometry x="315" y="740" width="210" height="80" as="geometry" />
        </mxCell>
        <mxCell id="a6iTerX62fWIqiRSxnE7-26" value="" style="endArrow=none;html=1;rounded=0;" parent="a6iTerX62fWIqiRSxnE7-1" source="a6iTerX62fWIqiRSxnE7-25" target="a6iTerX62fWIqiRSxnE7-3" edge="1">
          <mxGeometry width="50" height="50" relative="1" as="geometry">
            <mxPoint x="420" y="700" as="sourcePoint" />
            <mxPoint x="470" y="650" as="targetPoint" />
          </mxGeometry>
        </mxCell>
        <mxCell id="a6iTerX62fWIqiRSxnE7-27" value="&amp;lt;&amp;lt;Comum&amp;gt;&amp;gt;&lt;br&gt;Postar produto" style="ellipse;whiteSpace=wrap;html=1;" parent="a6iTerX62fWIqiRSxnE7-1" vertex="1">
          <mxGeometry x="324" y="850" width="170" height="80" as="geometry" />
        </mxCell>
        <mxCell id="a6iTerX62fWIqiRSxnE7-28" value="" style="endArrow=none;html=1;rounded=0;" parent="a6iTerX62fWIqiRSxnE7-1" source="a6iTerX62fWIqiRSxnE7-3" target="a6iTerX62fWIqiRSxnE7-27" edge="1">
          <mxGeometry width="50" height="50" relative="1" as="geometry">
            <mxPoint x="420" y="910" as="sourcePoint" />
            <mxPoint x="470" y="860" as="targetPoint" />
          </mxGeometry>
        </mxCell>
        <mxCell id="a6iTerX62fWIqiRSxnE7-29" value="&amp;lt;&amp;lt;Comum&amp;gt;&amp;gt;&lt;br&gt;Receber pagamento por vendas ou serviços" style="ellipse;whiteSpace=wrap;html=1;" parent="a6iTerX62fWIqiRSxnE7-1" vertex="1">
          <mxGeometry x="282" y="500" width="276" height="80" as="geometry" />
        </mxCell>
        <mxCell id="a6iTerX62fWIqiRSxnE7-30" value="" style="endArrow=none;html=1;rounded=0;exitX=0;exitY=0;exitDx=0;exitDy=0;" parent="a6iTerX62fWIqiRSxnE7-1" source="a6iTerX62fWIqiRSxnE7-29" target="a6iTerX62fWIqiRSxnE7-22" edge="1">
          <mxGeometry width="50" height="50" relative="1" as="geometry">
            <mxPoint x="230" y="580" as="sourcePoint" />
            <mxPoint x="280" y="530" as="targetPoint" />
          </mxGeometry>
        </mxCell>
        <mxCell id="a6iTerX62fWIqiRSxnE7-31" value="" style="endArrow=none;html=1;rounded=0;entryX=0.017;entryY=0.688;entryDx=0;entryDy=0;entryPerimeter=0;" parent="a6iTerX62fWIqiRSxnE7-1" source="a6iTerX62fWIqiRSxnE7-3" target="a6iTerX62fWIqiRSxnE7-29" edge="1">
          <mxGeometry width="50" height="50" relative="1" as="geometry">
            <mxPoint x="230" y="580" as="sourcePoint" />
            <mxPoint x="280" y="530" as="targetPoint" />
          </mxGeometry>
        </mxCell>
        <mxCell id="a6iTerX62fWIqiRSxnE7-32" value="Transportadora" style="shape=umlActor;verticalLabelPosition=bottom;verticalAlign=top;html=1;outlineConnect=0;" parent="a6iTerX62fWIqiRSxnE7-1" vertex="1">
          <mxGeometry x="760" y="500" width="30" height="60" as="geometry" />
        </mxCell>
        <mxCell id="a6iTerX62fWIqiRSxnE7-33" value="" style="endArrow=none;html=1;rounded=0;entryX=1;entryY=0.5;entryDx=0;entryDy=0;" parent="a6iTerX62fWIqiRSxnE7-1" source="a6iTerX62fWIqiRSxnE7-32" target="a6iTerX62fWIqiRSxnE7-29" edge="1">
          <mxGeometry width="50" height="50" relative="1" as="geometry">
            <mxPoint x="670" y="810" as="sourcePoint" />
            <mxPoint x="720" y="760" as="targetPoint" />
          </mxGeometry>
        </mxCell>
        <mxCell id="a6iTerX62fWIqiRSxnE7-34" value="&amp;lt;&amp;lt;Alternativa&amp;gt;&amp;gt;&lt;br&gt;Realiza serviço de entrerga" style="ellipse;whiteSpace=wrap;html=1;" parent="a6iTerX62fWIqiRSxnE7-1" vertex="1">
          <mxGeometry x="312" y="620" width="203" height="80" as="geometry" />
        </mxCell>
        <mxCell id="a6iTerX62fWIqiRSxnE7-35" value="" style="endArrow=none;html=1;rounded=0;exitX=0.796;exitY=0.101;exitDx=0;exitDy=0;exitPerimeter=0;" parent="a6iTerX62fWIqiRSxnE7-1" source="a6iTerX62fWIqiRSxnE7-34" target="a6iTerX62fWIqiRSxnE7-32" edge="1">
          <mxGeometry width="50" height="50" relative="1" as="geometry">
            <mxPoint x="480" y="790" as="sourcePoint" />
            <mxPoint x="530" y="740" as="targetPoint" />
          </mxGeometry>
        </mxCell>
      </root>
    </mxGraphModel>
  </diagram>
  <diagram id="VGkYMRCd_Nsev36r-y5c" name="Modelo de Features">
    <mxGraphModel dx="2261" dy="790" grid="1" gridSize="10" guides="1" tooltips="1" connect="1" arrows="1" fold="1" page="1" pageScale="1" pageWidth="827" pageHeight="1169" math="0" shadow="0">
      <root>
        <mxCell id="0" />
        <mxCell id="1" parent="0" />
        <mxCell id="El6nhGCPAMiflY2KbDE7-1" value="Sistema Corinto &lt;br&gt;para compra e venda" style="rounded=0;whiteSpace=wrap;html=1;" parent="1" vertex="1">
          <mxGeometry x="320" y="40" width="200" height="80" as="geometry" />
        </mxCell>
        <mxCell id="El6nhGCPAMiflY2KbDE7-2" value="Sistema de registro de usuário" style="rounded=0;whiteSpace=wrap;html=1;" parent="1" vertex="1">
          <mxGeometry x="40" y="160" width="160" height="60" as="geometry" />
        </mxCell>
        <mxCell id="El6nhGCPAMiflY2KbDE7-3" value="" style="endArrow=none;html=1;rounded=0;entryX=0;entryY=0.75;entryDx=0;entryDy=0;exitX=0.427;exitY=-0.006;exitDx=0;exitDy=0;exitPerimeter=0;endFill=0;startArrow=oval;startFill=1;" parent="1" source="El6nhGCPAMiflY2KbDE7-2" target="El6nhGCPAMiflY2KbDE7-1" edge="1">
          <mxGeometry width="50" height="50" relative="1" as="geometry">
            <mxPoint x="300" y="210" as="sourcePoint" />
            <mxPoint x="350" y="160" as="targetPoint" />
          </mxGeometry>
        </mxCell>
        <mxCell id="El6nhGCPAMiflY2KbDE7-4" value="Exibir catálogo de produtos" style="rounded=0;whiteSpace=wrap;html=1;" parent="1" vertex="1">
          <mxGeometry x="240" y="160" width="156" height="60" as="geometry" />
        </mxCell>
        <mxCell id="-a91z1JCrFNoW_ZrNNM6-1" value="" style="endArrow=none;html=1;rounded=0;entryX=0.358;entryY=1.006;entryDx=0;entryDy=0;entryPerimeter=0;exitX=0.418;exitY=0.008;exitDx=0;exitDy=0;exitPerimeter=0;startArrow=oval;startFill=1;" parent="1" source="El6nhGCPAMiflY2KbDE7-4" target="El6nhGCPAMiflY2KbDE7-1" edge="1">
          <mxGeometry width="50" height="50" relative="1" as="geometry">
            <mxPoint x="300" y="210" as="sourcePoint" />
            <mxPoint x="350" y="160" as="targetPoint" />
          </mxGeometry>
        </mxCell>
        <mxCell id="-a91z1JCrFNoW_ZrNNM6-3" value="Buscar por categoria" style="rounded=0;whiteSpace=wrap;html=1;" parent="1" vertex="1">
          <mxGeometry x="40" y="280" width="130" height="60" as="geometry" />
        </mxCell>
        <mxCell id="-a91z1JCrFNoW_ZrNNM6-4" value="" style="endArrow=none;html=1;rounded=0;entryX=0.359;entryY=1;entryDx=0;entryDy=0;entryPerimeter=0;exitX=0.404;exitY=-0.019;exitDx=0;exitDy=0;exitPerimeter=0;endFill=0;startArrow=oval;startFill=0;" parent="1" source="-a91z1JCrFNoW_ZrNNM6-3" target="El6nhGCPAMiflY2KbDE7-4" edge="1">
          <mxGeometry width="50" height="50" relative="1" as="geometry">
            <mxPoint x="300" y="300" as="sourcePoint" />
            <mxPoint x="350" y="250" as="targetPoint" />
          </mxGeometry>
        </mxCell>
        <mxCell id="-a91z1JCrFNoW_ZrNNM6-5" value="Exibir detalhes do produto" style="rounded=0;whiteSpace=wrap;html=1;" parent="1" vertex="1">
          <mxGeometry x="240" y="280" width="150" height="60" as="geometry" />
        </mxCell>
        <mxCell id="-a91z1JCrFNoW_ZrNNM6-6" value="" style="endArrow=none;html=1;rounded=0;entryX=0.5;entryY=1;entryDx=0;entryDy=0;exitX=0.5;exitY=0;exitDx=0;exitDy=0;startArrow=oval;startFill=1;" parent="1" source="-a91z1JCrFNoW_ZrNNM6-5" target="El6nhGCPAMiflY2KbDE7-4" edge="1">
          <mxGeometry width="50" height="50" relative="1" as="geometry">
            <mxPoint x="300" y="300" as="sourcePoint" />
            <mxPoint x="350" y="250" as="targetPoint" />
          </mxGeometry>
        </mxCell>
        <mxCell id="MpBtDJ-HwTdBZUPO9Mow-1" value="Adicionar produto ao carrinho" style="rounded=0;whiteSpace=wrap;html=1;" parent="1" vertex="1">
          <mxGeometry x="440" y="280" width="160" height="60" as="geometry" />
        </mxCell>
        <mxCell id="MpBtDJ-HwTdBZUPO9Mow-2" value="" style="endArrow=none;html=1;rounded=0;entryX=0.818;entryY=1.064;entryDx=0;entryDy=0;entryPerimeter=0;exitX=0.25;exitY=0;exitDx=0;exitDy=0;startArrow=oval;startFill=1;" parent="1" source="MpBtDJ-HwTdBZUPO9Mow-1" target="El6nhGCPAMiflY2KbDE7-4" edge="1">
          <mxGeometry width="50" height="50" relative="1" as="geometry">
            <mxPoint x="300" y="300" as="sourcePoint" />
            <mxPoint x="350" y="250" as="targetPoint" />
          </mxGeometry>
        </mxCell>
        <mxCell id="tv-OI9f7KlvZyH2-WwaA-1" value="Participar de leilão" style="rounded=0;whiteSpace=wrap;html=1;" parent="1" vertex="1">
          <mxGeometry x="440" y="160" width="120" height="60" as="geometry" />
        </mxCell>
        <mxCell id="tv-OI9f7KlvZyH2-WwaA-2" value="" style="endArrow=none;html=1;rounded=0;entryX=0.75;entryY=1;entryDx=0;entryDy=0;exitX=0.25;exitY=0;exitDx=0;exitDy=0;endFill=0;startArrow=oval;startFill=0;" parent="1" source="tv-OI9f7KlvZyH2-WwaA-1" target="El6nhGCPAMiflY2KbDE7-1" edge="1">
          <mxGeometry width="50" height="50" relative="1" as="geometry">
            <mxPoint x="470" y="300" as="sourcePoint" />
            <mxPoint x="520" y="250" as="targetPoint" />
          </mxGeometry>
        </mxCell>
        <mxCell id="JHo2yhhGlSXN7A_lceiu-1" value="Realizar pagamento" style="rounded=0;whiteSpace=wrap;html=1;" parent="1" vertex="1">
          <mxGeometry x="960" y="160" width="120" height="60" as="geometry" />
        </mxCell>
        <mxCell id="bokaxBXJHnGieoA3h5Y1-1" value="Avaliação e comentários dos produtos" style="rounded=0;whiteSpace=wrap;html=1;" parent="1" vertex="1">
          <mxGeometry x="830" y="285" width="210" height="60" as="geometry" />
        </mxCell>
        <mxCell id="bokaxBXJHnGieoA3h5Y1-3" value="Chat e suporte ao cliente" style="rounded=0;whiteSpace=wrap;html=1;" parent="1" vertex="1">
          <mxGeometry x="-150" y="160" width="150" height="60" as="geometry" />
        </mxCell>
        <mxCell id="bokaxBXJHnGieoA3h5Y1-4" value="" style="endArrow=none;html=1;rounded=0;entryX=0.5;entryY=1;entryDx=0;entryDy=0;startArrow=oval;startFill=0;" parent="1" source="bokaxBXJHnGieoA3h5Y1-1" target="JHo2yhhGlSXN7A_lceiu-1" edge="1">
          <mxGeometry width="50" height="50" relative="1" as="geometry">
            <mxPoint x="950" y="170" as="sourcePoint" />
            <mxPoint x="1000" y="120" as="targetPoint" />
          </mxGeometry>
        </mxCell>
        <mxCell id="bokaxBXJHnGieoA3h5Y1-5" value="" style="endArrow=none;html=1;rounded=0;entryX=0;entryY=0.5;entryDx=0;entryDy=0;exitX=0.75;exitY=0;exitDx=0;exitDy=0;startArrow=oval;startFill=0;" parent="1" source="bokaxBXJHnGieoA3h5Y1-3" target="El6nhGCPAMiflY2KbDE7-1" edge="1">
          <mxGeometry width="50" height="50" relative="1" as="geometry">
            <mxPoint x="220" y="180" as="sourcePoint" />
            <mxPoint x="270" y="130" as="targetPoint" />
          </mxGeometry>
        </mxCell>
        <mxCell id="bokaxBXJHnGieoA3h5Y1-6" value="Autenticação dos itens" style="rounded=0;whiteSpace=wrap;html=1;" parent="1" vertex="1">
          <mxGeometry x="600" y="160" width="160" height="60" as="geometry" />
        </mxCell>
        <mxCell id="bokaxBXJHnGieoA3h5Y1-7" value="" style="endArrow=none;html=1;rounded=0;entryX=1;entryY=0.5;entryDx=0;entryDy=0;exitX=0.25;exitY=0;exitDx=0;exitDy=0;startArrow=oval;startFill=0;" parent="1" source="bokaxBXJHnGieoA3h5Y1-6" target="El6nhGCPAMiflY2KbDE7-1" edge="1">
          <mxGeometry width="50" height="50" relative="1" as="geometry">
            <mxPoint x="340" y="130" as="sourcePoint" />
            <mxPoint x="390" y="80" as="targetPoint" />
          </mxGeometry>
        </mxCell>
        <mxCell id="bokaxBXJHnGieoA3h5Y1-8" value="Sistema de transporte" style="rounded=0;whiteSpace=wrap;html=1;" parent="1" vertex="1">
          <mxGeometry x="1080" y="285" width="160" height="60" as="geometry" />
        </mxCell>
        <mxCell id="bokaxBXJHnGieoA3h5Y1-9" value="" style="endArrow=none;html=1;rounded=0;entryX=0.807;entryY=1.026;entryDx=0;entryDy=0;entryPerimeter=0;startArrow=oval;startFill=1;" parent="1" source="bokaxBXJHnGieoA3h5Y1-8" target="JHo2yhhGlSXN7A_lceiu-1" edge="1">
          <mxGeometry width="50" height="50" relative="1" as="geometry">
            <mxPoint x="1050" y="280" as="sourcePoint" />
            <mxPoint x="1100" y="230" as="targetPoint" />
          </mxGeometry>
        </mxCell>
        <mxCell id="bokaxBXJHnGieoA3h5Y1-10" value="Entrega por via terrestre (lenta)" style="rounded=0;whiteSpace=wrap;html=1;" parent="1" vertex="1">
          <mxGeometry x="920" y="440" width="160" height="60" as="geometry" />
        </mxCell>
        <mxCell id="bokaxBXJHnGieoA3h5Y1-11" value="Entrega por via marítima (normal)" style="rounded=0;whiteSpace=wrap;html=1;" parent="1" vertex="1">
          <mxGeometry x="1110" y="440" width="150" height="60" as="geometry" />
        </mxCell>
        <mxCell id="bokaxBXJHnGieoA3h5Y1-12" value="Entrega por via aérea (rápida)" style="rounded=0;whiteSpace=wrap;html=1;" parent="1" vertex="1">
          <mxGeometry x="1280" y="440" width="130" height="60" as="geometry" />
        </mxCell>
        <mxCell id="bokaxBXJHnGieoA3h5Y1-16" value="" style="endArrow=none;html=1;rounded=0;entryX=0.25;entryY=1;entryDx=0;entryDy=0;exitX=0.5;exitY=0;exitDx=0;exitDy=0;startArrow=oval;startFill=1;" parent="1" source="bokaxBXJHnGieoA3h5Y1-10" target="bokaxBXJHnGieoA3h5Y1-8" edge="1">
          <mxGeometry width="50" height="50" relative="1" as="geometry">
            <mxPoint x="940" y="420" as="sourcePoint" />
            <mxPoint x="990" y="370" as="targetPoint" />
          </mxGeometry>
        </mxCell>
        <mxCell id="bokaxBXJHnGieoA3h5Y1-17" value="" style="endArrow=none;html=1;rounded=0;entryX=0.5;entryY=1;entryDx=0;entryDy=0;startArrow=oval;startFill=1;" parent="1" source="bokaxBXJHnGieoA3h5Y1-11" target="bokaxBXJHnGieoA3h5Y1-8" edge="1">
          <mxGeometry width="50" height="50" relative="1" as="geometry">
            <mxPoint x="940" y="420" as="sourcePoint" />
            <mxPoint x="990" y="370" as="targetPoint" />
          </mxGeometry>
        </mxCell>
        <mxCell id="bokaxBXJHnGieoA3h5Y1-18" value="" style="endArrow=none;html=1;rounded=0;entryX=0.75;entryY=1;entryDx=0;entryDy=0;exitX=0.5;exitY=0;exitDx=0;exitDy=0;startArrow=oval;startFill=1;" parent="1" source="bokaxBXJHnGieoA3h5Y1-12" target="bokaxBXJHnGieoA3h5Y1-8" edge="1">
          <mxGeometry width="50" height="50" relative="1" as="geometry">
            <mxPoint x="940" y="420" as="sourcePoint" />
            <mxPoint x="990" y="370" as="targetPoint" />
          </mxGeometry>
        </mxCell>
        <mxCell id="bokaxBXJHnGieoA3h5Y1-22" value="" style="curved=1;endArrow=none;html=1;rounded=0;endFill=0;" parent="1" edge="1">
          <mxGeometry width="50" height="50" relative="1" as="geometry">
            <mxPoint x="1240" y="370" as="sourcePoint" />
            <mxPoint x="1090" y="370" as="targetPoint" />
            <Array as="points">
              <mxPoint x="1170" y="420" />
            </Array>
          </mxGeometry>
        </mxCell>
        <mxCell id="bokaxBXJHnGieoA3h5Y1-23" value="Cadastrar produtos" style="rounded=0;whiteSpace=wrap;html=1;" parent="1" vertex="1">
          <mxGeometry x="790" y="160" width="120" height="60" as="geometry" />
        </mxCell>
        <mxCell id="bokaxBXJHnGieoA3h5Y1-24" value="" style="endArrow=none;html=1;rounded=0;entryX=1.006;entryY=0.355;entryDx=0;entryDy=0;entryPerimeter=0;exitX=0.5;exitY=0;exitDx=0;exitDy=0;startArrow=oval;startFill=1;" parent="1" source="bokaxBXJHnGieoA3h5Y1-23" target="El6nhGCPAMiflY2KbDE7-1" edge="1">
          <mxGeometry width="50" height="50" relative="1" as="geometry">
            <mxPoint x="860" y="220" as="sourcePoint" />
            <mxPoint x="910" y="170" as="targetPoint" />
          </mxGeometry>
        </mxCell>
        <mxCell id="bokaxBXJHnGieoA3h5Y1-25" value="Postagem do produto" style="rounded=0;whiteSpace=wrap;html=1;" parent="1" vertex="1">
          <mxGeometry x="-320" y="160" width="120" height="60" as="geometry" />
        </mxCell>
        <mxCell id="bokaxBXJHnGieoA3h5Y1-26" value="" style="endArrow=oval;html=1;rounded=0;entryX=0.629;entryY=0.037;entryDx=0;entryDy=0;entryPerimeter=0;exitX=0;exitY=0.25;exitDx=0;exitDy=0;startArrow=none;startFill=0;endFill=1;" parent="1" source="El6nhGCPAMiflY2KbDE7-1" target="bokaxBXJHnGieoA3h5Y1-25" edge="1">
          <mxGeometry width="50" height="50" relative="1" as="geometry">
            <mxPoint x="-80" y="250" as="sourcePoint" />
            <mxPoint x="-30" y="200" as="targetPoint" />
          </mxGeometry>
        </mxCell>
        <mxCell id="bokaxBXJHnGieoA3h5Y1-27" value="Receber&amp;nbsp;pagamento por vendas e serviços" style="rounded=0;whiteSpace=wrap;html=1;" parent="1" vertex="1">
          <mxGeometry x="1120" y="160" width="260" height="60" as="geometry" />
        </mxCell>
        <mxCell id="bokaxBXJHnGieoA3h5Y1-28" value="" style="endArrow=none;html=1;rounded=0;entryX=1;entryY=0.25;entryDx=0;entryDy=0;exitX=0.25;exitY=0;exitDx=0;exitDy=0;startArrow=oval;startFill=1;" parent="1" source="bokaxBXJHnGieoA3h5Y1-27" target="El6nhGCPAMiflY2KbDE7-1" edge="1">
          <mxGeometry width="50" height="50" relative="1" as="geometry">
            <mxPoint x="420" y="380" as="sourcePoint" />
            <mxPoint x="470" y="330" as="targetPoint" />
          </mxGeometry>
        </mxCell>
        <mxCell id="bokaxBXJHnGieoA3h5Y1-29" value="" style="endArrow=none;html=1;rounded=0;entryX=1;entryY=0.25;entryDx=0;entryDy=0;exitX=0.25;exitY=0;exitDx=0;exitDy=0;startArrow=oval;startFill=1;" parent="1" source="JHo2yhhGlSXN7A_lceiu-1" target="El6nhGCPAMiflY2KbDE7-1" edge="1">
          <mxGeometry width="50" height="50" relative="1" as="geometry">
            <mxPoint x="920" y="220" as="sourcePoint" />
            <mxPoint x="970" y="170" as="targetPoint" />
          </mxGeometry>
        </mxCell>
      </root>
    </mxGraphModel>
  </diagram>
  <diagram id="4-_-TW4CQCusx4tSyRFG" name="Diagramas de classes">
    <mxGraphModel dx="2261" dy="790" grid="1" gridSize="10" guides="1" tooltips="1" connect="1" arrows="1" fold="1" page="1" pageScale="1" pageWidth="827" pageHeight="1169" math="0" shadow="0">
      <root>
        <mxCell id="0" />
        <mxCell id="1" parent="0" />
        <mxCell id="OZX1iq9fgG8ZS8bJNdjm-1" value="Produto" style="swimlane;fontStyle=0;childLayout=stackLayout;horizontal=1;startSize=30;fillColor=none;horizontalStack=0;resizeParent=1;resizeParentMax=0;resizeLast=0;collapsible=1;marginBottom=0;whiteSpace=wrap;html=1;" vertex="1" parent="1">
          <mxGeometry x="320" y="60" width="140" height="134" as="geometry" />
        </mxCell>
        <mxCell id="OZX1iq9fgG8ZS8bJNdjm-2" value="+ descricao:char" style="text;strokeColor=none;fillColor=none;align=left;verticalAlign=top;spacingLeft=4;spacingRight=4;overflow=hidden;rotatable=0;points=[[0,0.5],[1,0.5]];portConstraint=eastwest;whiteSpace=wrap;html=1;" vertex="1" parent="OZX1iq9fgG8ZS8bJNdjm-1">
          <mxGeometry y="30" width="140" height="26" as="geometry" />
        </mxCell>
        <mxCell id="OZX1iq9fgG8ZS8bJNdjm-3" value="+ categoria:char&amp;nbsp;" style="text;strokeColor=none;fillColor=none;align=left;verticalAlign=top;spacingLeft=4;spacingRight=4;overflow=hidden;rotatable=0;points=[[0,0.5],[1,0.5]];portConstraint=eastwest;whiteSpace=wrap;html=1;" vertex="1" parent="OZX1iq9fgG8ZS8bJNdjm-1">
          <mxGeometry y="56" width="140" height="26" as="geometry" />
        </mxCell>
        <mxCell id="OZX1iq9fgG8ZS8bJNdjm-4" value="+ preco: float" style="text;strokeColor=none;fillColor=none;align=left;verticalAlign=top;spacingLeft=4;spacingRight=4;overflow=hidden;rotatable=0;points=[[0,0.5],[1,0.5]];portConstraint=eastwest;whiteSpace=wrap;html=1;" vertex="1" parent="OZX1iq9fgG8ZS8bJNdjm-1">
          <mxGeometry y="82" width="140" height="26" as="geometry" />
        </mxCell>
        <mxCell id="OZX1iq9fgG8ZS8bJNdjm-5" value="+ avaliacaoAut:bool" style="text;strokeColor=none;fillColor=none;align=left;verticalAlign=top;spacingLeft=4;spacingRight=4;overflow=hidden;rotatable=0;points=[[0,0.5],[1,0.5]];portConstraint=eastwest;whiteSpace=wrap;html=1;" vertex="1" parent="OZX1iq9fgG8ZS8bJNdjm-1">
          <mxGeometry y="108" width="140" height="26" as="geometry" />
        </mxCell>
        <mxCell id="OZX1iq9fgG8ZS8bJNdjm-6" value="Cliente" style="swimlane;fontStyle=0;childLayout=stackLayout;horizontal=1;startSize=30;fillColor=none;horizontalStack=0;resizeParent=1;resizeParentMax=0;resizeLast=0;collapsible=1;marginBottom=0;whiteSpace=wrap;html=1;" vertex="1" parent="1">
          <mxGeometry x="910" y="194" width="190" height="108" as="geometry" />
        </mxCell>
        <mxCell id="OZX1iq9fgG8ZS8bJNdjm-7" value="+ nome:char" style="text;strokeColor=none;fillColor=none;align=left;verticalAlign=top;spacingLeft=4;spacingRight=4;overflow=hidden;rotatable=0;points=[[0,0.5],[1,0.5]];portConstraint=eastwest;whiteSpace=wrap;html=1;" vertex="1" parent="OZX1iq9fgG8ZS8bJNdjm-6">
          <mxGeometry y="30" width="190" height="26" as="geometry" />
        </mxCell>
        <mxCell id="OZX1iq9fgG8ZS8bJNdjm-8" value="+ info_contato: string" style="text;strokeColor=none;fillColor=none;align=left;verticalAlign=top;spacingLeft=4;spacingRight=4;overflow=hidden;rotatable=0;points=[[0,0.5],[1,0.5]];portConstraint=eastwest;whiteSpace=wrap;html=1;" vertex="1" parent="OZX1iq9fgG8ZS8bJNdjm-6">
          <mxGeometry y="56" width="190" height="26" as="geometry" />
        </mxCell>
        <mxCell id="OZX1iq9fgG8ZS8bJNdjm-9" value="+ historico_compras: &amp;lt;&amp;lt;struct&amp;gt;&amp;gt;" style="text;strokeColor=none;fillColor=none;align=left;verticalAlign=top;spacingLeft=4;spacingRight=4;overflow=hidden;rotatable=0;points=[[0,0.5],[1,0.5]];portConstraint=eastwest;whiteSpace=wrap;html=1;" vertex="1" parent="OZX1iq9fgG8ZS8bJNdjm-6">
          <mxGeometry y="82" width="190" height="26" as="geometry" />
        </mxCell>
        <mxCell id="OZX1iq9fgG8ZS8bJNdjm-10" value="Vendedor" style="swimlane;fontStyle=0;childLayout=stackLayout;horizontal=1;startSize=30;fillColor=none;horizontalStack=0;resizeParent=1;resizeParentMax=0;resizeLast=0;collapsible=1;marginBottom=0;whiteSpace=wrap;html=1;" vertex="1" parent="1">
          <mxGeometry x="290" y="307" width="200" height="108" as="geometry" />
        </mxCell>
        <mxCell id="OZX1iq9fgG8ZS8bJNdjm-11" value="+ nome:char" style="text;strokeColor=none;fillColor=none;align=left;verticalAlign=top;spacingLeft=4;spacingRight=4;overflow=hidden;rotatable=0;points=[[0,0.5],[1,0.5]];portConstraint=eastwest;whiteSpace=wrap;html=1;" vertex="1" parent="OZX1iq9fgG8ZS8bJNdjm-10">
          <mxGeometry y="30" width="200" height="26" as="geometry" />
        </mxCell>
        <mxCell id="OZX1iq9fgG8ZS8bJNdjm-12" value="+ info_contato: string" style="text;strokeColor=none;fillColor=none;align=left;verticalAlign=top;spacingLeft=4;spacingRight=4;overflow=hidden;rotatable=0;points=[[0,0.5],[1,0.5]];portConstraint=eastwest;whiteSpace=wrap;html=1;" vertex="1" parent="OZX1iq9fgG8ZS8bJNdjm-10">
          <mxGeometry y="56" width="200" height="26" as="geometry" />
        </mxCell>
        <mxCell id="OZX1iq9fgG8ZS8bJNdjm-13" value="+ itens_catalogo:&amp;nbsp;&amp;lt;&amp;lt;struct&amp;gt;&amp;gt;" style="text;strokeColor=none;fillColor=none;align=left;verticalAlign=top;spacingLeft=4;spacingRight=4;overflow=hidden;rotatable=0;points=[[0,0.5],[1,0.5]];portConstraint=eastwest;whiteSpace=wrap;html=1;" vertex="1" parent="OZX1iq9fgG8ZS8bJNdjm-10">
          <mxGeometry y="82" width="200" height="26" as="geometry" />
        </mxCell>
        <mxCell id="OZX1iq9fgG8ZS8bJNdjm-14" value="Autenticação" style="swimlane;fontStyle=0;childLayout=stackLayout;horizontal=1;startSize=30;fillColor=none;horizontalStack=0;resizeParent=1;resizeParentMax=0;resizeLast=0;collapsible=1;marginBottom=0;whiteSpace=wrap;html=1;" vertex="1" parent="1">
          <mxGeometry x="-30" y="90" width="190" height="82" as="geometry" />
        </mxCell>
        <mxCell id="OZX1iq9fgG8ZS8bJNdjm-15" value="+ certificado:char:" style="text;strokeColor=none;fillColor=none;align=left;verticalAlign=top;spacingLeft=4;spacingRight=4;overflow=hidden;rotatable=0;points=[[0,0.5],[1,0.5]];portConstraint=eastwest;whiteSpace=wrap;html=1;" vertex="1" parent="OZX1iq9fgG8ZS8bJNdjm-14">
          <mxGeometry y="30" width="190" height="26" as="geometry" />
        </mxCell>
        <mxCell id="OZX1iq9fgG8ZS8bJNdjm-16" value="+ especialista: string" style="text;strokeColor=none;fillColor=none;align=left;verticalAlign=top;spacingLeft=4;spacingRight=4;overflow=hidden;rotatable=0;points=[[0,0.5],[1,0.5]];portConstraint=eastwest;whiteSpace=wrap;html=1;" vertex="1" parent="OZX1iq9fgG8ZS8bJNdjm-14">
          <mxGeometry y="56" width="190" height="26" as="geometry" />
        </mxCell>
        <mxCell id="OZX1iq9fgG8ZS8bJNdjm-17" value="Transporte" style="swimlane;fontStyle=0;childLayout=stackLayout;horizontal=1;startSize=30;fillColor=none;horizontalStack=0;resizeParent=1;resizeParentMax=0;resizeLast=0;collapsible=1;marginBottom=0;whiteSpace=wrap;html=1;" vertex="1" parent="1">
          <mxGeometry x="650" y="510" width="190" height="82" as="geometry" />
        </mxCell>
        <mxCell id="OZX1iq9fgG8ZS8bJNdjm-18" value="+ tipo:char" style="text;strokeColor=none;fillColor=none;align=left;verticalAlign=top;spacingLeft=4;spacingRight=4;overflow=hidden;rotatable=0;points=[[0,0.5],[1,0.5]];portConstraint=eastwest;whiteSpace=wrap;html=1;" vertex="1" parent="OZX1iq9fgG8ZS8bJNdjm-17">
          <mxGeometry y="30" width="190" height="26" as="geometry" />
        </mxCell>
        <mxCell id="OZX1iq9fgG8ZS8bJNdjm-19" value="+ rastreamento:char" style="text;strokeColor=none;fillColor=none;align=left;verticalAlign=top;spacingLeft=4;spacingRight=4;overflow=hidden;rotatable=0;points=[[0,0.5],[1,0.5]];portConstraint=eastwest;whiteSpace=wrap;html=1;" vertex="1" parent="OZX1iq9fgG8ZS8bJNdjm-17">
          <mxGeometry y="56" width="190" height="26" as="geometry" />
        </mxCell>
        <mxCell id="OZX1iq9fgG8ZS8bJNdjm-20" value="adiciona" style="endArrow=none;html=1;endSize=12;startArrow=none;startSize=14;startFill=0;edgeStyle=orthogonalEdgeStyle;rounded=0;endFill=0;entryX=-0.016;entryY=0.269;entryDx=0;entryDy=0;entryPerimeter=0;exitX=1;exitY=0.5;exitDx=0;exitDy=0;" edge="1" parent="1" source="OZX1iq9fgG8ZS8bJNdjm-3" target="OZX1iq9fgG8ZS8bJNdjm-24">
          <mxGeometry relative="1" as="geometry">
            <mxPoint x="460" y="130" as="sourcePoint" />
            <mxPoint x="620" y="126.5" as="targetPoint" />
            <mxPoint as="offset" />
          </mxGeometry>
        </mxCell>
        <mxCell id="OZX1iq9fgG8ZS8bJNdjm-21" value="1" style="edgeLabel;resizable=0;html=1;align=left;verticalAlign=top;" connectable="0" vertex="1" parent="OZX1iq9fgG8ZS8bJNdjm-20">
          <mxGeometry x="-1" relative="1" as="geometry" />
        </mxCell>
        <mxCell id="OZX1iq9fgG8ZS8bJNdjm-22" value="n" style="edgeLabel;resizable=0;html=1;align=right;verticalAlign=top;" connectable="0" vertex="1" parent="OZX1iq9fgG8ZS8bJNdjm-20">
          <mxGeometry x="1" relative="1" as="geometry" />
        </mxCell>
        <mxCell id="OZX1iq9fgG8ZS8bJNdjm-23" value="Carrinho de Compras" style="swimlane;fontStyle=0;childLayout=stackLayout;horizontal=1;startSize=30;fillColor=none;horizontalStack=0;resizeParent=1;resizeParentMax=0;resizeLast=0;collapsible=1;marginBottom=0;whiteSpace=wrap;html=1;" vertex="1" parent="1">
          <mxGeometry x="670" y="90" width="190" height="82" as="geometry" />
        </mxCell>
        <mxCell id="OZX1iq9fgG8ZS8bJNdjm-24" value="+ itens_carrinho:&amp;lt;&amp;lt;list&amp;gt;&amp;gt;" style="text;strokeColor=none;fillColor=none;align=left;verticalAlign=top;spacingLeft=4;spacingRight=4;overflow=hidden;rotatable=0;points=[[0,0.5],[1,0.5]];portConstraint=eastwest;whiteSpace=wrap;html=1;" vertex="1" parent="OZX1iq9fgG8ZS8bJNdjm-23">
          <mxGeometry y="30" width="190" height="26" as="geometry" />
        </mxCell>
        <mxCell id="OZX1iq9fgG8ZS8bJNdjm-25" value="+totalcompra: float" style="text;strokeColor=none;fillColor=none;align=left;verticalAlign=top;spacingLeft=4;spacingRight=4;overflow=hidden;rotatable=0;points=[[0,0.5],[1,0.5]];portConstraint=eastwest;whiteSpace=wrap;html=1;" vertex="1" parent="OZX1iq9fgG8ZS8bJNdjm-23">
          <mxGeometry y="56" width="190" height="26" as="geometry" />
        </mxCell>
        <mxCell id="OZX1iq9fgG8ZS8bJNdjm-26" value="avalia" style="endArrow=none;html=1;endSize=12;startArrow=none;startSize=14;startFill=0;edgeStyle=orthogonalEdgeStyle;rounded=0;endFill=0;" edge="1" parent="1">
          <mxGeometry y="1" relative="1" as="geometry">
            <mxPoint x="160" y="130.5" as="sourcePoint" />
            <mxPoint x="320" y="130.5" as="targetPoint" />
            <mxPoint y="1" as="offset" />
          </mxGeometry>
        </mxCell>
        <mxCell id="OZX1iq9fgG8ZS8bJNdjm-27" value="1" style="edgeLabel;resizable=0;html=1;align=left;verticalAlign=top;" connectable="0" vertex="1" parent="OZX1iq9fgG8ZS8bJNdjm-26">
          <mxGeometry x="-1" relative="1" as="geometry" />
        </mxCell>
        <mxCell id="OZX1iq9fgG8ZS8bJNdjm-28" value="1" style="edgeLabel;resizable=0;html=1;align=right;verticalAlign=top;" connectable="0" vertex="1" parent="OZX1iq9fgG8ZS8bJNdjm-26">
          <mxGeometry x="1" relative="1" as="geometry" />
        </mxCell>
        <mxCell id="OZX1iq9fgG8ZS8bJNdjm-29" value="Especialista" style="swimlane;fontStyle=0;childLayout=stackLayout;horizontal=1;startSize=30;fillColor=none;horizontalStack=0;resizeParent=1;resizeParentMax=0;resizeLast=0;collapsible=1;marginBottom=0;whiteSpace=wrap;html=1;" vertex="1" parent="1">
          <mxGeometry x="-40" y="280" width="190" height="82" as="geometry" />
        </mxCell>
        <mxCell id="OZX1iq9fgG8ZS8bJNdjm-30" value="+ nome: char" style="text;strokeColor=none;fillColor=none;align=left;verticalAlign=top;spacingLeft=4;spacingRight=4;overflow=hidden;rotatable=0;points=[[0,0.5],[1,0.5]];portConstraint=eastwest;whiteSpace=wrap;html=1;" vertex="1" parent="OZX1iq9fgG8ZS8bJNdjm-29">
          <mxGeometry y="30" width="190" height="26" as="geometry" />
        </mxCell>
        <mxCell id="OZX1iq9fgG8ZS8bJNdjm-31" value="+ especializacao : string" style="text;strokeColor=none;fillColor=none;align=left;verticalAlign=top;spacingLeft=4;spacingRight=4;overflow=hidden;rotatable=0;points=[[0,0.5],[1,0.5]];portConstraint=eastwest;whiteSpace=wrap;html=1;" vertex="1" parent="OZX1iq9fgG8ZS8bJNdjm-29">
          <mxGeometry y="56" width="190" height="26" as="geometry" />
        </mxCell>
        <mxCell id="OZX1iq9fgG8ZS8bJNdjm-32" value="Vendas" style="swimlane;fontStyle=0;childLayout=stackLayout;horizontal=1;startSize=30;fillColor=none;horizontalStack=0;resizeParent=1;resizeParentMax=0;resizeLast=0;collapsible=1;marginBottom=0;whiteSpace=wrap;html=1;" vertex="1" parent="1">
          <mxGeometry x="650" y="320" width="190" height="82" as="geometry" />
        </mxCell>
        <mxCell id="OZX1iq9fgG8ZS8bJNdjm-33" value="+ transacoes:&amp;lt;&amp;lt;list&amp;gt;&amp;gt;" style="text;strokeColor=none;fillColor=none;align=left;verticalAlign=top;spacingLeft=4;spacingRight=4;overflow=hidden;rotatable=0;points=[[0,0.5],[1,0.5]];portConstraint=eastwest;whiteSpace=wrap;html=1;" vertex="1" parent="OZX1iq9fgG8ZS8bJNdjm-32">
          <mxGeometry y="30" width="190" height="26" as="geometry" />
        </mxCell>
        <mxCell id="OZX1iq9fgG8ZS8bJNdjm-34" value="+ pagamentos:&amp;lt;&amp;lt;struct&amp;gt;&amp;gt;" style="text;strokeColor=none;fillColor=none;align=left;verticalAlign=top;spacingLeft=4;spacingRight=4;overflow=hidden;rotatable=0;points=[[0,0.5],[1,0.5]];portConstraint=eastwest;whiteSpace=wrap;html=1;" vertex="1" parent="OZX1iq9fgG8ZS8bJNdjm-32">
          <mxGeometry y="56" width="190" height="26" as="geometry" />
        </mxCell>
        <mxCell id="OZX1iq9fgG8ZS8bJNdjm-35" value="vende" style="endArrow=none;html=1;endSize=12;startArrow=none;startSize=14;startFill=0;edgeStyle=orthogonalEdgeStyle;rounded=0;endFill=0;exitX=0.993;exitY=0.192;exitDx=0;exitDy=0;exitPerimeter=0;entryX=0.432;entryY=-0.024;entryDx=0;entryDy=0;entryPerimeter=0;" edge="1" parent="1">
          <mxGeometry y="1" relative="1" as="geometry">
            <mxPoint x="460" y="180.00199999999995" as="sourcePoint" />
            <mxPoint x="733.06" y="315.0419999999999" as="targetPoint" />
            <mxPoint y="1" as="offset" />
            <Array as="points">
              <mxPoint x="733" y="181" />
            </Array>
          </mxGeometry>
        </mxCell>
        <mxCell id="OZX1iq9fgG8ZS8bJNdjm-36" value="1" style="edgeLabel;resizable=0;html=1;align=left;verticalAlign=top;" connectable="0" vertex="1" parent="OZX1iq9fgG8ZS8bJNdjm-35">
          <mxGeometry x="-1" relative="1" as="geometry" />
        </mxCell>
        <mxCell id="OZX1iq9fgG8ZS8bJNdjm-37" value="n" style="edgeLabel;resizable=0;html=1;align=right;verticalAlign=top;" connectable="0" vertex="1" parent="OZX1iq9fgG8ZS8bJNdjm-35">
          <mxGeometry x="1" relative="1" as="geometry">
            <mxPoint x="-3" y="-25" as="offset" />
          </mxGeometry>
        </mxCell>
        <mxCell id="OZX1iq9fgG8ZS8bJNdjm-38" value="adiciona" style="endArrow=none;html=1;endSize=12;startArrow=none;startSize=14;startFill=0;edgeStyle=orthogonalEdgeStyle;rounded=0;endFill=0;entryX=0.647;entryY=-0.009;entryDx=0;entryDy=0;entryPerimeter=0;exitX=1;exitY=0.25;exitDx=0;exitDy=0;" edge="1" parent="1" source="OZX1iq9fgG8ZS8bJNdjm-23" target="OZX1iq9fgG8ZS8bJNdjm-6">
          <mxGeometry relative="1" as="geometry">
            <mxPoint x="880" y="112" as="sourcePoint" />
            <mxPoint x="1087" y="110" as="targetPoint" />
            <mxPoint as="offset" />
          </mxGeometry>
        </mxCell>
        <mxCell id="OZX1iq9fgG8ZS8bJNdjm-39" value="1" style="edgeLabel;resizable=0;html=1;align=left;verticalAlign=top;" connectable="0" vertex="1" parent="OZX1iq9fgG8ZS8bJNdjm-38">
          <mxGeometry x="-1" relative="1" as="geometry" />
        </mxCell>
        <mxCell id="OZX1iq9fgG8ZS8bJNdjm-40" value="1" style="edgeLabel;resizable=0;html=1;align=right;verticalAlign=top;" connectable="0" vertex="1" parent="OZX1iq9fgG8ZS8bJNdjm-38">
          <mxGeometry x="1" relative="1" as="geometry">
            <mxPoint x="-13" y="-33" as="offset" />
          </mxGeometry>
        </mxCell>
        <mxCell id="OZX1iq9fgG8ZS8bJNdjm-41" value="paga" style="endArrow=none;html=1;endSize=12;startArrow=none;startSize=14;startFill=0;edgeStyle=orthogonalEdgeStyle;rounded=0;endFill=0;exitX=1.021;exitY=-0.154;exitDx=0;exitDy=0;exitPerimeter=0;entryX=0.811;entryY=0.962;entryDx=0;entryDy=0;entryPerimeter=0;" edge="1" parent="1" source="OZX1iq9fgG8ZS8bJNdjm-34" target="OZX1iq9fgG8ZS8bJNdjm-9">
          <mxGeometry relative="1" as="geometry">
            <mxPoint x="860" y="372" as="sourcePoint" />
            <mxPoint x="1060" y="350" as="targetPoint" />
            <mxPoint as="offset" />
            <Array as="points">
              <mxPoint x="1060" y="372" />
              <mxPoint x="1060" y="301" />
            </Array>
          </mxGeometry>
        </mxCell>
        <mxCell id="OZX1iq9fgG8ZS8bJNdjm-42" value="n" style="edgeLabel;resizable=0;html=1;align=left;verticalAlign=top;" connectable="0" vertex="1" parent="OZX1iq9fgG8ZS8bJNdjm-41">
          <mxGeometry x="-1" relative="1" as="geometry" />
        </mxCell>
        <mxCell id="OZX1iq9fgG8ZS8bJNdjm-43" value="1" style="edgeLabel;resizable=0;html=1;align=right;verticalAlign=top;" connectable="0" vertex="1" parent="OZX1iq9fgG8ZS8bJNdjm-41">
          <mxGeometry x="1" relative="1" as="geometry">
            <mxPoint x="-14" y="-1" as="offset" />
          </mxGeometry>
        </mxCell>
        <mxCell id="OZX1iq9fgG8ZS8bJNdjm-44" value="lista" style="endArrow=none;html=1;endSize=12;startArrow=none;startSize=14;startFill=0;edgeStyle=orthogonalEdgeStyle;rounded=0;endFill=0;exitX=0.421;exitY=1.038;exitDx=0;exitDy=0;exitPerimeter=0;" edge="1" parent="1" source="OZX1iq9fgG8ZS8bJNdjm-5">
          <mxGeometry relative="1" as="geometry">
            <mxPoint x="310" y="244.5" as="sourcePoint" />
            <mxPoint x="400" y="300" as="targetPoint" />
            <mxPoint as="offset" />
          </mxGeometry>
        </mxCell>
        <mxCell id="OZX1iq9fgG8ZS8bJNdjm-45" value="n" style="edgeLabel;resizable=0;html=1;align=left;verticalAlign=top;" connectable="0" vertex="1" parent="OZX1iq9fgG8ZS8bJNdjm-44">
          <mxGeometry x="-1" relative="1" as="geometry" />
        </mxCell>
        <mxCell id="OZX1iq9fgG8ZS8bJNdjm-46" value="1" style="edgeLabel;resizable=0;html=1;align=right;verticalAlign=top;" connectable="0" vertex="1" parent="OZX1iq9fgG8ZS8bJNdjm-44">
          <mxGeometry x="1" relative="1" as="geometry">
            <mxPoint x="-10" y="-20" as="offset" />
          </mxGeometry>
        </mxCell>
        <mxCell id="OZX1iq9fgG8ZS8bJNdjm-47" value="vende" style="endArrow=none;html=1;endSize=12;startArrow=none;startSize=14;startFill=0;edgeStyle=orthogonalEdgeStyle;rounded=0;endFill=0;entryX=-0.005;entryY=0.192;entryDx=0;entryDy=0;entryPerimeter=0;" edge="1" parent="1" target="OZX1iq9fgG8ZS8bJNdjm-33">
          <mxGeometry relative="1" as="geometry">
            <mxPoint x="490" y="365.5" as="sourcePoint" />
            <mxPoint x="640" y="355.5" as="targetPoint" />
            <mxPoint as="offset" />
            <Array as="points">
              <mxPoint x="566" y="366" />
              <mxPoint x="566" y="367" />
              <mxPoint x="641" y="367" />
              <mxPoint x="641" y="355" />
            </Array>
          </mxGeometry>
        </mxCell>
        <mxCell id="OZX1iq9fgG8ZS8bJNdjm-48" value="1" style="edgeLabel;resizable=0;html=1;align=left;verticalAlign=top;" connectable="0" vertex="1" parent="OZX1iq9fgG8ZS8bJNdjm-47">
          <mxGeometry x="-1" relative="1" as="geometry" />
        </mxCell>
        <mxCell id="OZX1iq9fgG8ZS8bJNdjm-49" value="n" style="edgeLabel;resizable=0;html=1;align=right;verticalAlign=top;" connectable="0" vertex="1" parent="OZX1iq9fgG8ZS8bJNdjm-47">
          <mxGeometry x="1" relative="1" as="geometry">
            <mxPoint x="-9" y="15" as="offset" />
          </mxGeometry>
        </mxCell>
        <mxCell id="OZX1iq9fgG8ZS8bJNdjm-50" value="avalia" style="endArrow=none;html=1;endSize=12;startArrow=none;startSize=14;startFill=0;edgeStyle=orthogonalEdgeStyle;rounded=0;endFill=0;exitX=0.421;exitY=1.038;exitDx=0;exitDy=0;exitPerimeter=0;" edge="1" parent="1">
          <mxGeometry relative="1" as="geometry">
            <mxPoint x="54" y="172" as="sourcePoint" />
            <mxPoint x="75" y="277" as="targetPoint" />
            <mxPoint as="offset" />
            <Array as="points">
              <mxPoint x="54" y="173" />
              <mxPoint x="76" y="173" />
            </Array>
          </mxGeometry>
        </mxCell>
        <mxCell id="OZX1iq9fgG8ZS8bJNdjm-51" value="n" style="edgeLabel;resizable=0;html=1;align=left;verticalAlign=top;" connectable="0" vertex="1" parent="OZX1iq9fgG8ZS8bJNdjm-50">
          <mxGeometry x="-1" relative="1" as="geometry" />
        </mxCell>
        <mxCell id="OZX1iq9fgG8ZS8bJNdjm-52" value="1" style="edgeLabel;resizable=0;html=1;align=right;verticalAlign=top;" connectable="0" vertex="1" parent="OZX1iq9fgG8ZS8bJNdjm-50">
          <mxGeometry x="1" relative="1" as="geometry">
            <mxPoint x="-10" y="-20" as="offset" />
          </mxGeometry>
        </mxCell>
        <mxCell id="OZX1iq9fgG8ZS8bJNdjm-53" value="transporta" style="endArrow=none;html=1;endSize=12;startArrow=none;startSize=14;startFill=0;edgeStyle=orthogonalEdgeStyle;rounded=0;endFill=0;exitX=0.421;exitY=1.038;exitDx=0;exitDy=0;exitPerimeter=0;" edge="1" parent="1">
          <mxGeometry relative="1" as="geometry">
            <mxPoint x="720" y="402" as="sourcePoint" />
            <mxPoint x="741" y="507" as="targetPoint" />
            <mxPoint as="offset" />
            <Array as="points">
              <mxPoint x="720" y="403" />
              <mxPoint x="742" y="403" />
            </Array>
          </mxGeometry>
        </mxCell>
        <mxCell id="OZX1iq9fgG8ZS8bJNdjm-54" value="1" style="edgeLabel;resizable=0;html=1;align=left;verticalAlign=top;" connectable="0" vertex="1" parent="OZX1iq9fgG8ZS8bJNdjm-53">
          <mxGeometry x="-1" relative="1" as="geometry" />
        </mxCell>
        <mxCell id="OZX1iq9fgG8ZS8bJNdjm-55" value="1" style="edgeLabel;resizable=0;html=1;align=right;verticalAlign=top;" connectable="0" vertex="1" parent="OZX1iq9fgG8ZS8bJNdjm-53">
          <mxGeometry x="1" relative="1" as="geometry">
            <mxPoint x="-10" y="-20" as="offset" />
          </mxGeometry>
        </mxCell>
      </root>
    </mxGraphModel>
  </diagram>
  <diagram id="bo86bjuGFa_p-Of_bcNW" name="Componentes de Negocio">
    <mxGraphModel dx="1434" dy="790" grid="1" gridSize="10" guides="1" tooltips="1" connect="1" arrows="1" fold="1" page="1" pageScale="1" pageWidth="827" pageHeight="1169" math="0" shadow="0">
      <root>
        <mxCell id="0" />
        <mxCell id="1" parent="0" />
      </root>
    </mxGraphModel>
  </diagram>
  <diagram id="cBbxMMa7gVxjzYDHKMn3" name="Componentes de Sistema">
    <mxGraphModel dx="1434" dy="790" grid="1" gridSize="10" guides="1" tooltips="1" connect="1" arrows="1" fold="1" page="1" pageScale="1" pageWidth="827" pageHeight="1169" math="0" shadow="0">
      <root>
        <mxCell id="0" />
        <mxCell id="1" parent="0" />
      </root>
    </mxGraphModel>
  </diagram>
</mxfile>
